<svg width="250" height="50" viewBox="0 0 250 50" fill="none" xmlns="http://www.w3.org/2000/svg">
  <path d="M62.7168 15.957V30H59.9922V15.957H62.7168ZM76.5645 15.957V17.959H72.4629V30H69.7383V17.959H65.5977V15.957H76.5645ZM87.502 29.541C87.235 29.6517 86.9421 29.7493 86.623 29.834C86.3105 29.9186 85.9818 29.9902 85.6367 30.0488C85.2917 30.1074 84.9401 30.153 84.582 30.1855C84.2305 30.2181 83.8854 30.2344 83.5469 30.2344C81.8346 30.2344 80.5391 29.8242 79.6602 29.0039C78.7878 28.1771 78.3516 26.9141 78.3516 25.2148C78.3516 24.4596 78.4395 23.7435 78.6152 23.0664C78.791 22.3893 79.0742 21.7969 79.4648 21.2891C79.862 20.7747 80.3796 20.3678 81.0176 20.0684C81.6621 19.7689 82.4499 19.6191 83.3809 19.6191C85.0085 19.6191 86.2227 20.0521 87.0234 20.918C87.8242 21.7773 88.2246 23.0924 88.2246 24.8633V25.6348H81.0078C81.0208 26.0775 81.0729 26.4681 81.1641 26.8066C81.2552 27.1452 81.4049 27.4316 81.6133 27.666C81.8281 27.8939 82.1081 28.0697 82.4531 28.1934C82.7982 28.3105 83.2311 28.3691 83.752 28.3691C84.2077 28.3691 84.6992 28.3138 85.2266 28.2031C85.7539 28.0859 86.304 27.9199 86.877 27.7051L87.502 29.541ZM85.5488 23.8965C85.5033 22.2884 84.7806 21.4844 83.3809 21.4844C82.6582 21.4844 82.1081 21.6927 81.7305 22.1094C81.3594 22.526 81.1315 23.1217 81.0469 23.8965H85.5488ZM91.0176 20.3418C91.2585 20.2441 91.5319 20.153 91.8379 20.0684C92.1504 19.9837 92.4792 19.9089 92.8242 19.8438C93.1758 19.7721 93.5371 19.7168 93.9082 19.6777C94.2858 19.6387 94.6667 19.6191 95.0508 19.6191C95.5911 19.6191 96.0957 19.6615 96.5645 19.7461C97.0397 19.8307 97.4336 19.9707 97.7461 20.166C98.0586 20.3613 98.3027 20.6283 98.4785 20.9668C98.6543 21.2988 98.7422 21.7188 98.7422 22.2266V26.1914C98.7422 26.6471 98.7454 27.054 98.752 27.4121C98.7585 27.7637 98.7715 28.1087 98.791 28.4473C98.804 28.571 98.8171 28.6849 98.8301 28.7891C98.8431 28.8867 98.8561 28.9844 98.8691 29.082C98.8887 29.1732 98.9082 29.2708 98.9277 29.375C98.9538 29.4792 98.9831 29.5931 99.0156 29.7168C98.612 29.8079 98.2083 29.8958 97.8047 29.9805C97.4076 30.0651 97.0039 30.1465 96.5938 30.2246C96.5221 30.0423 96.4635 29.8568 96.418 29.668C96.3789 29.4727 96.3431 29.2513 96.3105 29.0039H96.1641C95.9362 29.2383 95.7083 29.4336 95.4805 29.5898C95.2526 29.7461 95.015 29.873 94.7676 29.9707C94.5202 30.0684 94.263 30.1367 93.9961 30.1758C93.7292 30.2148 93.4492 30.2344 93.1562 30.2344C92.707 30.2344 92.2904 30.179 91.9062 30.0684C91.5221 29.9642 91.1868 29.8014 90.9004 29.5801C90.6204 29.3587 90.3991 29.0788 90.2363 28.7402C90.0801 28.3952 90.002 27.9915 90.002 27.5293C90.002 27.1387 90.041 26.7904 90.1191 26.4844C90.2038 26.1784 90.321 25.9049 90.4707 25.6641C90.6204 25.4232 90.7995 25.2116 91.0078 25.0293C91.2161 24.847 91.4473 24.6875 91.7012 24.5508C92.209 24.2773 92.7754 24.0918 93.4004 23.9941C94.0254 23.89 94.6634 23.8379 95.3145 23.8379H96.1543V22.5684C96.1543 22.3275 96.1152 22.1387 96.0371 22.002C95.9655 21.8587 95.8646 21.7513 95.7344 21.6797C95.6107 21.6081 95.4642 21.5625 95.2949 21.543C95.1257 21.5169 94.9434 21.5039 94.748 21.5039C94.2207 21.5039 93.6868 21.5723 93.1465 21.709C92.6126 21.8392 92.1016 22.002 91.6133 22.1973L91.0176 20.3418ZM96.1543 25.2734H95.959C95.4967 25.2799 95.054 25.3158 94.6309 25.3809C94.2142 25.4395 93.8464 25.5436 93.5273 25.6934C93.2083 25.8431 92.9512 26.0417 92.7559 26.2891C92.5671 26.5299 92.4727 26.8359 92.4727 27.207C92.4727 27.6172 92.5898 27.9329 92.8242 28.1543C93.0651 28.3757 93.4004 28.4863 93.8301 28.4863C94.0319 28.4863 94.2402 28.4603 94.4551 28.4082C94.6699 28.3496 94.8815 28.2715 95.0898 28.1738C95.2982 28.0697 95.4935 27.9427 95.6758 27.793C95.8581 27.6432 96.0176 27.4707 96.1543 27.2754V25.2734ZM111.174 22.0215C111.389 21.6048 111.61 21.2467 111.838 20.9473C112.066 20.6413 112.31 20.3906 112.57 20.1953C112.837 20 113.124 19.8568 113.43 19.7656C113.742 19.668 114.094 19.6191 114.484 19.6191C115.298 19.6191 115.936 19.8112 116.398 20.1953C116.867 20.5729 117.199 21.1263 117.395 21.8555C117.557 22.4674 117.639 23.2031 117.639 24.0625V30H114.963V23.3008C114.963 23.0469 114.94 22.8255 114.895 22.6367C114.855 22.4414 114.797 22.2754 114.719 22.1387C114.608 21.9368 114.458 21.7936 114.27 21.709C114.087 21.6178 113.872 21.5723 113.625 21.5723C113.384 21.5723 113.153 21.6374 112.932 21.7676C112.71 21.8913 112.499 22.0508 112.297 22.2461C112.102 22.4414 111.919 22.6595 111.75 22.9004C111.581 23.1413 111.428 23.3757 111.291 23.6035C111.298 23.6751 111.301 23.7467 111.301 23.8184C111.301 23.89 111.301 23.9648 111.301 24.043V30H108.625V23.3008C108.625 23.0469 108.602 22.8255 108.557 22.6367C108.518 22.4414 108.459 22.2754 108.381 22.1387C108.27 21.9368 108.12 21.7936 107.932 21.709C107.749 21.6178 107.535 21.5723 107.287 21.5723C107.053 21.5723 106.828 21.6374 106.613 21.7676C106.398 21.8913 106.193 22.0508 105.998 22.2461C105.803 22.4414 105.62 22.6595 105.451 22.9004C105.282 23.1413 105.129 23.3757 104.992 23.6035V30H102.316V23.7402C102.316 23.3626 102.313 23.0111 102.307 22.6855C102.3 22.3535 102.287 22.0443 102.268 21.7578C102.248 21.4648 102.219 21.1882 102.18 20.9277C102.141 20.6673 102.089 20.4134 102.023 20.166C102.447 20.0553 102.867 19.9577 103.283 19.873C103.706 19.7819 104.133 19.6973 104.562 19.6191C104.608 19.7559 104.65 19.8926 104.689 20.0293C104.729 20.1595 104.761 20.3027 104.787 20.459C104.813 20.6087 104.836 20.7747 104.855 20.957C104.875 21.1393 104.895 21.3477 104.914 21.582H105.041C105.249 21.2695 105.458 20.9928 105.666 20.752C105.881 20.5046 106.109 20.2995 106.35 20.1367C106.59 19.9674 106.857 19.8405 107.15 19.7559C107.443 19.6647 107.775 19.6191 108.146 19.6191C108.986 19.6191 109.641 19.8242 110.109 20.2344C110.585 20.6445 110.913 21.2402 111.096 22.0215H111.174ZM136.193 29.6094C135.614 29.7982 134.976 29.9479 134.279 30.0586C133.589 30.1758 132.886 30.2344 132.17 30.2344C130.952 30.2344 129.921 30.0944 129.074 29.8145C128.234 29.528 127.551 29.0951 127.023 28.5156C126.496 27.9297 126.115 27.1973 125.881 26.3184C125.646 25.4329 125.529 24.3913 125.529 23.1934C125.529 21.9434 125.643 20.8529 125.871 19.9219C126.105 18.9909 126.473 18.2161 126.975 17.5977C127.476 16.9792 128.12 16.5169 128.908 16.2109C129.702 15.8984 130.663 15.7422 131.789 15.7422C132.186 15.7422 132.577 15.7617 132.961 15.8008C133.352 15.8398 133.719 15.8919 134.064 15.957C134.416 16.0221 134.742 16.097 135.041 16.1816C135.347 16.2663 135.617 16.3542 135.852 16.4453L135.207 18.4082C134.745 18.2389 134.25 18.0924 133.723 17.9688C133.202 17.8385 132.652 17.7734 132.072 17.7734C131.376 17.7734 130.786 17.8776 130.305 18.0859C129.823 18.2943 129.432 18.61 129.133 19.0332C128.84 19.4564 128.628 19.9902 128.498 20.6348C128.368 21.2793 128.303 22.0345 128.303 22.9004C128.303 23.8249 128.374 24.6224 128.518 25.293C128.661 25.957 128.892 26.5072 129.211 26.9434C129.53 27.373 129.947 27.6921 130.461 27.9004C130.982 28.1022 131.613 28.2031 132.355 28.2031C132.922 28.2031 133.488 28.151 134.055 28.0469C134.628 27.9427 135.158 27.8092 135.646 27.6465L136.193 29.6094ZM142.951 19.6191C143.804 19.6191 144.543 19.7526 145.168 20.0195C145.793 20.2865 146.307 20.6576 146.711 21.1328C147.121 21.6016 147.424 22.1615 147.619 22.8125C147.821 23.457 147.922 24.1602 147.922 24.9219C147.922 25.6836 147.821 26.39 147.619 27.041C147.424 27.6921 147.121 28.2552 146.711 28.7305C146.307 29.1992 145.793 29.5671 145.168 29.834C144.543 30.1009 143.804 30.2344 142.951 30.2344C142.098 30.2344 141.359 30.1009 140.734 29.834C140.109 29.5671 139.592 29.1992 139.182 28.7305C138.778 28.2552 138.475 27.6921 138.273 27.041C138.078 26.39 137.98 25.6836 137.98 24.9219C137.98 24.1602 138.078 23.457 138.273 22.8125C138.475 22.1615 138.778 21.6016 139.182 21.1328C139.592 20.6576 140.109 20.2865 140.734 20.0195C141.359 19.7526 142.098 19.6191 142.951 19.6191ZM142.951 21.5332C142.482 21.5332 142.098 21.6211 141.799 21.7969C141.499 21.9727 141.265 22.2135 141.096 22.5195C140.926 22.8255 140.809 23.1868 140.744 23.6035C140.686 24.0137 140.656 24.4531 140.656 24.9219C140.656 25.3971 140.686 25.8431 140.744 26.2598C140.809 26.6699 140.926 27.028 141.096 27.334C141.265 27.64 141.499 27.8809 141.799 28.0566C142.098 28.2324 142.482 28.3203 142.951 28.3203C143.42 28.3203 143.804 28.2324 144.104 28.0566C144.403 27.8809 144.637 27.64 144.807 27.334C144.976 27.028 145.09 26.6699 145.148 26.2598C145.214 25.8431 145.246 25.3971 145.246 24.9219C145.246 24.4531 145.214 24.0137 145.148 23.6035C145.09 23.1868 144.976 22.8255 144.807 22.5195C144.637 22.2135 144.403 21.9727 144.104 21.7969C143.804 21.6211 143.42 21.5332 142.951 21.5332ZM159.689 22.0215C159.904 21.6048 160.126 21.2467 160.354 20.9473C160.581 20.6413 160.826 20.3906 161.086 20.1953C161.353 20 161.639 19.8568 161.945 19.7656C162.258 19.668 162.609 19.6191 163 19.6191C163.814 19.6191 164.452 19.8112 164.914 20.1953C165.383 20.5729 165.715 21.1263 165.91 21.8555C166.073 22.4674 166.154 23.2031 166.154 24.0625V30H163.479V23.3008C163.479 23.0469 163.456 22.8255 163.41 22.6367C163.371 22.4414 163.312 22.2754 163.234 22.1387C163.124 21.9368 162.974 21.7936 162.785 21.709C162.603 21.6178 162.388 21.5723 162.141 21.5723C161.9 21.5723 161.669 21.6374 161.447 21.7676C161.226 21.8913 161.014 22.0508 160.812 22.2461C160.617 22.4414 160.435 22.6595 160.266 22.9004C160.096 23.1413 159.943 23.3757 159.807 23.6035C159.813 23.6751 159.816 23.7467 159.816 23.8184C159.816 23.89 159.816 23.9648 159.816 24.043V30H157.141V23.3008C157.141 23.0469 157.118 22.8255 157.072 22.6367C157.033 22.4414 156.975 22.2754 156.896 22.1387C156.786 21.9368 156.636 21.7936 156.447 21.709C156.265 21.6178 156.05 21.5723 155.803 21.5723C155.568 21.5723 155.344 21.6374 155.129 21.7676C154.914 21.8913 154.709 22.0508 154.514 22.2461C154.318 22.4414 154.136 22.6595 153.967 22.9004C153.798 23.1413 153.645 23.3757 153.508 23.6035V30H150.832V23.7402C150.832 23.3626 150.829 23.0111 150.822 22.6855C150.816 22.3535 150.803 22.0443 150.783 21.7578C150.764 21.4648 150.734 21.1882 150.695 20.9277C150.656 20.6673 150.604 20.4134 150.539 20.166C150.962 20.0553 151.382 19.9577 151.799 19.873C152.222 19.7819 152.648 19.6973 153.078 19.6191C153.124 19.7559 153.166 19.8926 153.205 20.0293C153.244 20.1595 153.277 20.3027 153.303 20.459C153.329 20.6087 153.352 20.7747 153.371 20.957C153.391 21.1393 153.41 21.3477 153.43 21.582H153.557C153.765 21.2695 153.973 20.9928 154.182 20.752C154.396 20.5046 154.624 20.2995 154.865 20.1367C155.106 19.9674 155.373 19.8405 155.666 19.7559C155.959 19.6647 156.291 19.6191 156.662 19.6191C157.502 19.6191 158.156 19.8242 158.625 20.2344C159.1 20.6445 159.429 21.2402 159.611 22.0215H159.689ZM171.564 21.4746C172.32 20.2376 173.387 19.6191 174.768 19.6191C175.451 19.6191 176.027 19.7526 176.496 20.0195C176.965 20.2865 177.342 20.6478 177.629 21.1035C177.922 21.5527 178.13 22.0768 178.254 22.6758C178.384 23.2682 178.449 23.8965 178.449 24.5605C178.449 25.498 178.322 26.3216 178.068 27.0312C177.821 27.7344 177.469 28.3236 177.014 28.7988C176.558 29.2741 176.011 29.6322 175.373 29.873C174.742 30.1139 174.042 30.2344 173.273 30.2344C172.993 30.2344 172.72 30.2214 172.453 30.1953C172.193 30.1693 171.929 30.1367 171.662 30.0977V33.916H168.996V23.1641C168.996 22.8581 168.993 22.5716 168.986 22.3047C168.986 22.0378 168.977 21.7839 168.957 21.543C168.938 21.3021 168.908 21.0677 168.869 20.8398C168.837 20.6055 168.788 20.3711 168.723 20.1367C169.139 20.0195 169.533 19.9219 169.904 19.8438C170.275 19.7656 170.676 19.6908 171.105 19.6191C171.151 19.7559 171.193 19.8861 171.232 20.0098C171.271 20.1335 171.304 20.2669 171.33 20.4102C171.363 20.5534 171.389 20.7096 171.408 20.8789C171.428 21.0482 171.444 21.2467 171.457 21.4746H171.564ZM171.633 28.0859C172.154 28.2161 172.639 28.2812 173.088 28.2812C173.472 28.2812 173.827 28.2292 174.152 28.125C174.484 28.0208 174.768 27.8516 175.002 27.6172C175.243 27.3828 175.432 27.0801 175.568 26.709C175.705 26.3379 175.773 25.8854 175.773 25.3516C175.773 24.7982 175.751 24.2904 175.705 23.8281C175.66 23.3659 175.568 22.9688 175.432 22.6367C175.295 22.2982 175.1 22.0378 174.846 21.8555C174.592 21.6667 174.257 21.5723 173.84 21.5723C173.534 21.5723 173.264 21.6341 173.029 21.7578C172.801 21.8815 172.593 22.054 172.404 22.2754C172.261 22.4316 172.128 22.6107 172.004 22.8125C171.88 23.0078 171.757 23.2194 171.633 23.4473V28.0859ZM181.154 20.3418C181.395 20.2441 181.669 20.153 181.975 20.0684C182.287 19.9837 182.616 19.9089 182.961 19.8438C183.312 19.7721 183.674 19.7168 184.045 19.6777C184.423 19.6387 184.803 19.6191 185.188 19.6191C185.728 19.6191 186.232 19.6615 186.701 19.7461C187.176 19.8307 187.57 19.9707 187.883 20.166C188.195 20.3613 188.439 20.6283 188.615 20.9668C188.791 21.2988 188.879 21.7188 188.879 22.2266V26.1914C188.879 26.6471 188.882 27.054 188.889 27.4121C188.895 27.7637 188.908 28.1087 188.928 28.4473C188.941 28.571 188.954 28.6849 188.967 28.7891C188.98 28.8867 188.993 28.9844 189.006 29.082C189.025 29.1732 189.045 29.2708 189.064 29.375C189.09 29.4792 189.12 29.5931 189.152 29.7168C188.749 29.8079 188.345 29.8958 187.941 29.9805C187.544 30.0651 187.141 30.1465 186.73 30.2246C186.659 30.0423 186.6 29.8568 186.555 29.668C186.516 29.4727 186.48 29.2513 186.447 29.0039H186.301C186.073 29.2383 185.845 29.4336 185.617 29.5898C185.389 29.7461 185.152 29.873 184.904 29.9707C184.657 30.0684 184.4 30.1367 184.133 30.1758C183.866 30.2148 183.586 30.2344 183.293 30.2344C182.844 30.2344 182.427 30.179 182.043 30.0684C181.659 29.9642 181.324 29.8014 181.037 29.5801C180.757 29.3587 180.536 29.0788 180.373 28.7402C180.217 28.3952 180.139 27.9915 180.139 27.5293C180.139 27.1387 180.178 26.7904 180.256 26.4844C180.34 26.1784 180.458 25.9049 180.607 25.6641C180.757 25.4232 180.936 25.2116 181.145 25.0293C181.353 24.847 181.584 24.6875 181.838 24.5508C182.346 24.2773 182.912 24.0918 183.537 23.9941C184.162 23.89 184.8 23.8379 185.451 23.8379H186.291V22.5684C186.291 22.3275 186.252 22.1387 186.174 22.002C186.102 21.8587 186.001 21.7513 185.871 21.6797C185.747 21.6081 185.601 21.5625 185.432 21.543C185.262 21.5169 185.08 21.5039 184.885 21.5039C184.357 21.5039 183.824 21.5723 183.283 21.709C182.749 21.8392 182.238 22.002 181.75 22.1973L181.154 20.3418ZM186.291 25.2734H186.096C185.633 25.2799 185.191 25.3158 184.768 25.3809C184.351 25.4395 183.983 25.5436 183.664 25.6934C183.345 25.8431 183.088 26.0417 182.893 26.2891C182.704 26.5299 182.609 26.8359 182.609 27.207C182.609 27.6172 182.727 27.9329 182.961 28.1543C183.202 28.3757 183.537 28.4863 183.967 28.4863C184.169 28.4863 184.377 28.4603 184.592 28.4082C184.807 28.3496 185.018 28.2715 185.227 28.1738C185.435 28.0697 185.63 27.9427 185.812 27.793C185.995 27.6432 186.154 27.4707 186.291 27.2754V25.2734ZM194.855 21.582C195.07 21.2565 195.292 20.9733 195.52 20.7324C195.754 20.485 196.001 20.2799 196.262 20.1172C196.529 19.9479 196.818 19.8242 197.131 19.7461C197.45 19.6615 197.801 19.6191 198.186 19.6191C198.615 19.6191 198.996 19.668 199.328 19.7656C199.66 19.8568 199.947 19.9935 200.188 20.1758C200.428 20.3516 200.63 20.5729 200.793 20.8398C200.962 21.1003 201.096 21.3965 201.193 21.7285C201.285 22.0605 201.35 22.4219 201.389 22.8125C201.434 23.1966 201.457 23.6133 201.457 24.0625V30H198.781V23.291C198.781 22.7311 198.651 22.3047 198.391 22.0117C198.137 21.7188 197.788 21.5723 197.346 21.5723C197.098 21.5723 196.854 21.6309 196.613 21.748C196.379 21.8652 196.151 22.0215 195.93 22.2168C195.708 22.4056 195.503 22.6204 195.314 22.8613C195.126 23.1022 194.956 23.3464 194.807 23.5938V30H192.131V23.7402C192.131 23.2129 192.124 22.7734 192.111 22.4219C192.105 22.0638 192.089 21.748 192.062 21.4746C192.049 21.3379 192.036 21.2174 192.023 21.1133C192.01 21.0091 191.994 20.9082 191.975 20.8105C191.962 20.7129 191.942 20.6152 191.916 20.5176C191.896 20.4134 191.87 20.2962 191.838 20.166C192.261 20.0553 192.681 19.9577 193.098 19.873C193.521 19.7819 193.947 19.6973 194.377 19.6191C194.423 19.7559 194.465 19.8926 194.504 20.0293C194.543 20.1595 194.576 20.3027 194.602 20.459C194.628 20.6087 194.65 20.7747 194.67 20.957C194.689 21.1393 194.709 21.3477 194.729 21.582H194.855ZM213.537 19.8438V29.9219C213.537 30.6836 213.413 31.3281 213.166 31.8555C212.925 32.3893 212.58 32.8223 212.131 33.1543C211.688 33.4863 211.154 33.7272 210.529 33.877C209.911 34.0267 209.227 34.1016 208.479 34.1016C207.899 34.1016 207.31 34.0495 206.711 33.9453C206.118 33.8477 205.568 33.6979 205.061 33.4961C205.197 33.1706 205.337 32.8516 205.48 32.5391C205.624 32.2266 205.77 31.9141 205.92 31.6016C206.389 31.7513 206.864 31.8783 207.346 31.9824C207.827 32.0931 208.293 32.1484 208.742 32.1484C208.872 32.1484 209.012 32.1419 209.162 32.1289C209.318 32.1224 209.475 32.0996 209.631 32.0605C209.787 32.0215 209.94 31.9596 210.09 31.875C210.24 31.7969 210.37 31.6862 210.48 31.543C210.598 31.4062 210.692 31.2305 210.764 31.0156C210.835 30.8073 210.874 30.5534 210.881 30.2539V28.2715H210.793C210.578 28.597 210.354 28.8835 210.119 29.1309C209.891 29.3717 209.644 29.5768 209.377 29.7461C209.11 29.9089 208.817 30.0293 208.498 30.1074C208.179 30.1921 207.824 30.2344 207.434 30.2344C206.796 30.2344 206.268 30.1335 205.852 29.9316C205.435 29.7298 205.1 29.4401 204.846 29.0625C204.598 28.6719 204.423 28.2031 204.318 27.6562C204.214 27.1094 204.162 26.4876 204.162 25.791V19.8438H206.838V26.5625C206.838 27.1224 206.968 27.5488 207.229 27.8418C207.489 28.1348 207.847 28.2812 208.303 28.2812C208.55 28.2812 208.791 28.2227 209.025 28.1055C209.266 27.9883 209.497 27.8353 209.719 27.6465C209.94 27.4577 210.145 27.2428 210.334 27.002C210.523 26.7546 210.692 26.5072 210.842 26.2598V19.8438H213.537Z" fill="white"/>
  <g clip-path="url(#clip0)">
    <path d="M10.6694 36.5047C10.6019 31.444 13.7757 27.3954 14.9912 25.2361C16.2067 23.0769 23.5672 16.4642 23.5672 16.4642L17.6923 20.9176L18.5026 20.0404L22.8244 15.3846L18.9753 17.4763L23.2295 13.9001C23.2295 13.9001 24.9852 12.1457 23.2295 11.6059C21.4738 11.0661 16.3417 13.0229 16.3417 13.0229C16.3417 13.0229 19.448 13.2253 18.0974 13.5627C16.7469 13.9001 3.71407 21.1875 1.55319 24.6288C-0.675216 28.0701 0.135115 34.5479 0.135115 34.5479C-0.27005 29.8245 4.79451 26.9905 4.79451 26.9905C4.79451 26.9905 3.64655 32.2537 4.45688 37.5843C5.26721 42.9149 15.8015 45.6815 15.8015 45.6815C15.8015 45.6815 10.7369 41.4979 10.6694 36.5047Z" fill="#D1C661"/>
    <path d="M27.4839 10.3239C28.2267 12.5506 28.2267 12.5506 28.2267 12.5506L29.7123 10.7287C29.7123 10.7287 28.8344 8.09717 27.889 8.09717C26.9437 8.09717 26.1333 8.77193 26.0658 9.10931C25.9983 9.10931 26.7411 8.16464 27.4839 10.3239Z" fill="#D1C661"/>
    <path d="M23.0945 29.2173C22.1491 28.5425 20.3934 28.2051 20.3258 27.3954C20.2583 26.7881 21.1362 26.2483 21.9465 25.911C22.1491 25.8435 23.0269 25.1012 23.0945 24.8313C23.162 24.1566 22.9594 23.3468 22.9594 23.3468C22.9594 23.3468 22.4867 22.1997 22.1491 21.525C21.8115 20.8502 22.9594 19.7031 22.9594 19.7031C6.48271 32.2537 12.02 40.9582 15.869 44.6019C16.2067 44.8718 17.5572 45.749 18.165 45.884C20.1233 46.2888 23.162 46.4912 23.162 46.4912H29.6446C29.6446 46.4912 29.9823 46.4238 29.9148 42.5776C29.8472 38.7315 26.4709 36.4373 26.4709 36.4373C26.4709 36.4373 21.4738 35.0203 25.9306 35.4926C30.3874 35.9649 31.5354 45.4791 31.5354 45.4791C31.5354 45.4791 32.1432 42.5101 30.0498 36.8421C28.024 31.0392 24.0399 29.8246 23.0945 29.2173Z" fill="#D1C661"/>
    <path d="M44.5682 31.1741C43.9604 31.444 43.2851 31.5789 42.6774 31.6464C42.4073 31.6464 42.1372 31.7139 41.8671 31.7139C40.8542 31.7813 39.4361 31.309 38.7608 30.8367C38.5582 30.7017 38.4232 30.6342 38.2206 30.4993C38.0855 30.4318 37.6128 29.9595 37.4778 29.8245C37.0726 29.0148 37.1401 27.8677 37.1401 27.8677L36.0597 26.6531L35.8571 26.5857C35.8571 26.5857 35.6545 26.6531 35.5195 26.7206C35.452 26.7881 35.3169 26.7881 35.2494 26.8556C33.021 27.5978 30.3874 25.7759 29.6446 24.6963C28.9018 23.6167 29.8472 21.3225 30.3874 20.4453C30.9276 19.5681 32.4132 19.9055 32.6158 18.9608C32.8184 18.0162 30.3874 16.3967 30.3874 16.3967C30.3874 16.3967 31.4678 18.0162 29.6446 19.0283C27.8214 20.0405 26.5383 22.0647 25.9306 23.7517C25.3228 25.4386 24.7151 26.6531 23.3645 26.9905C22.014 27.3279 22.3516 27.7328 25.9306 29.0148C29.5771 30.2969 32.6833 44.2645 32.8859 42.8475C33.156 41.4305 33.4937 36.8421 34.7092 37.5843C35.6545 38.1241 37.6128 43.1849 38.5582 45.8164C38.8959 46.6936 39.0309 48.1106 38.9634 48.8529C38.8283 50.4048 38.8283 51.8218 39.7062 45.8164C40.9892 36.977 35.9922 30.7692 35.9922 30.7692C35.9922 30.7692 35.5195 30.3643 36.4649 30.2294C37.4103 30.0944 38.8283 33.0634 41.2593 33.6707C43.6903 34.2105 46.4589 30.4318 44.5682 31.1741Z" fill="#D1C661"/>
    <path d="M10.5344 15.857C10.8045 15.722 11.1421 15.587 11.5473 15.4521C12.8978 14.9123 14.3159 14.4399 14.451 14.3725C16.2742 13.8327 14.5185 12.9555 14.5185 12.9555C14.5185 12.9555 16.8144 11.5385 19.313 11.0661C19.5155 10.9987 22.7569 10.5938 23.3646 10.5263C23.6347 10.5263 23.8373 10.5263 24.1074 10.5263C24.6476 10.5938 24.6476 9.78408 24.5801 9.24426C24.5126 8.97436 24.5801 8.43455 24.8502 8.02969C25.1879 7.48988 25.7956 6.88259 26.6059 6.88259C28.0915 6.81511 28.9019 7.28745 29.9823 8.83941C31.0627 10.3914 32.2107 10.7287 32.2107 10.7287V6.88259C32.2107 6.88259 32.0081 6.14035 32.6834 6.20783C33.3587 6.2753 34.5066 7.4224 34.5066 7.4224V5.39811C34.5066 5.39811 34.3041 3.84615 35.2495 4.58839C36.1948 5.33063 36.8701 10.7962 36.8701 10.7962V7.69231C36.8701 7.69231 37.0052 6.54521 37.0727 6.0054C37.2078 4.8583 36.9376 2.90148 34.034 2.15924C29.8473 1.07962 23.162 1.07962 19.9207 1.48448C17.6923 1.82186 15.2613 1.21457 13.9108 0.674764C13.6406 0.539811 13.3705 0.404858 13.168 0.269906C13.168 0.269906 13.1004 0.269906 13.1004 0.202429C12.7628 0.134953 12.6953 0 12.6953 0C12.6953 0 12.8978 0.404858 13.1004 0.74224C13.168 0.877193 13.3705 1.21457 13.4381 1.21457C13.5731 1.34953 13.8432 1.61943 13.8432 1.61943C14.5185 2.2942 15.4639 2.96896 15.4639 2.96896L17.5572 4.18354C17.5572 4.18354 14.9237 5.60054 13.2355 5.80297C11.5473 6.0054 11.5473 6.0054 11.5473 6.0054L16.8144 7.08502L18.165 6.95007C18.165 6.95007 18.3676 7.21997 17.017 7.69231C15.6665 8.23212 6.61779 7.69231 5.94251 7.69231C5.26724 7.69231 10.5344 10.2564 10.5344 10.2564C10.5344 10.2564 8.84619 11.2686 7.15801 12.3482C6.82037 12.5506 4.72702 13.8327 4.38938 14.305C3.78163 15.1822 4.05174 16.1269 4.1868 16.2618C4.59196 16.6667 4.9296 16.8691 4.9296 16.8691L1.55322 20.4453C1.55322 20.4453 6.75284 17.6113 10.5344 15.857Z" fill="#D1C661"/>
    <path d="M41.2592 25.2362C39.0984 24.5614 39.3685 24.1565 38.6257 24.0216C37.8153 23.8192 36.5999 24.5614 36.5999 25.3036C36.5999 26.0459 37.005 26.1134 37.005 26.1134H42.1371L41.9345 25.776C41.9345 25.776 41.7995 25.641 41.6644 25.5061C41.5969 25.3711 41.3268 25.2362 41.2592 25.2362Z" fill="#D1C661"/>
    <path d="M40.7192 20.4453C40.2466 19.8381 41.1919 18.1511 41.1919 18.1511C41.1919 18.1511 40.6517 17.8812 38.6259 19.7706C36.6676 21.6599 38.2207 23.2119 38.2207 23.2119C38.4233 24.0891 40.3141 24.0891 41.2595 24.0216C41.5971 24.0216 41.9347 23.9541 42.1373 23.8192C42.475 23.6842 42.9477 23.4818 42.5425 23.4818C41.9347 23.4818 40.1115 22.6046 40.1115 22.6046C40.1115 22.6046 40.1115 22.1997 40.7868 22.4696C41.4621 22.7395 43.4204 22.4696 43.4204 22.4696C43.4204 22.4696 43.4203 22.4696 42.9477 22.1997C42.5425 21.8623 41.1919 21.0526 40.7192 20.4453Z" fill="#D1C661"/>
    <path d="M47.4719 20.0405L46.1889 19.2307L45.9863 20.1079L44.2306 19.0283C44.2306 19.0283 44.2306 19.7706 44.8384 20.3778C45.2435 20.8502 45.041 22.1322 44.8384 22.807C44.7708 23.0769 44.6358 23.3468 44.5007 23.4818C44.028 23.8866 42.9476 24.8313 42.8125 25.3036C42.61 25.9784 42.4074 26.9905 43.2177 27.193C43.7579 27.3279 44.2981 26.9231 44.5683 26.7206C44.7033 26.5857 44.8384 25.9784 44.8384 25.9784L45.176 24.0891C45.176 24.0891 45.4461 22.8745 46.1889 22.3347C46.7967 21.9298 47.3369 21.1876 47.5395 20.8502C47.607 20.7827 47.607 20.5803 47.607 20.5803V20.2429L47.4719 20.0405Z" fill="#D1C661"/>
    <path d="M37.6803 13.6302C37.6803 13.6302 34.3039 14.3725 33.9663 14.5074H37.6803C37.6803 14.5074 37.5453 15.9244 39.0984 15.857C40.6515 15.7895 41.1917 14.8448 41.1917 14.8448C41.1917 14.8448 39.8412 12.4831 38.8958 12.5506C38.2205 12.6181 38.5582 12.8205 38.8283 12.888C38.9633 12.9555 39.0984 13.0229 39.1659 13.0904C39.436 13.3603 39.9763 14.1026 39.7737 14.3725C39.5036 14.7773 37.6803 13.6302 37.6803 13.6302Z" fill="#D1C661"/>
    <path d="M26.4708 13.5628C26.5383 12.6182 25.6605 12.9555 25.6605 12.9555C26.1332 13.4954 25.3904 14.7774 25.3904 14.7774C25.3904 14.7774 26.4033 14.575 26.4708 13.5628Z" fill="#D1C661"/>
  </g>
  <defs>
    <clipPath id="clip0">
      <rect width="47.6744" height="50" fill="white"/>
    </clipPath>
  </defs>
</svg>
